<svg xmlns="http://www.w3.org/2000/svg" viewBox="0 0 32 32" fill="none">
  <rect width="32" height="32" rx="6" fill="#3d4a3a"/>
  <path d="M8 22V10h4.2c2.4 0 4 1.5 4 3.6 0 2.1-1.6 3.6-4 3.6H11v4.8H8zm3-7.2h1c1.1 0 1.8-.6 1.8-1.6 0-1-.7-1.6-1.8-1.6h-1V14.8zM18.5 22V10h5.8c2.1 0 3.5 1.2 3.5 3.1 0 1.3-.7 2.2-1.8 2.6 1.4.4 2.3 1.5 2.3 3.1 0 2.1-1.6 3.2-4 3.2H18.5zm3-8.5h2.2c.9 0 1.4-.4 1.4-1.2 0-.7-.5-1.1-1.4-1.1h-2.2v2.3zm0 5.7h2.4c1 0 1.6-.5 1.6-1.4 0-.8-.6-1.3-1.6-1.3h-2.4v2.7z" fill="#e8e4dc"/>
</svg>
